<svg width="66" height="66" viewBox="0 0 66 66" fill="none" xmlns="http://www.w3.org/2000/svg">
<g clip-path="url(#clip0)">
<path d="M1.04564 38.726C1.15169 38.726 1.2617 38.71 1.36874 38.674L6.07758 37.129C6.62666 36.948 6.92697 36.354 6.74956 35.8C6.57215 35.246 5.98342 34.944 5.43236 35.122L0.72352 36.667C0.174436 36.848 -0.125875 37.442 0.0515365 37.996C0.194259 38.444 0.604585 38.726 1.04564 38.726V38.726Z" fill="black"/>
<path d="M0.722528 18.7097L5.43137 20.2391C5.53742 20.2737 5.64743 20.2906 5.75447 20.2906C6.19552 20.2906 6.60585 20.0101 6.74857 19.5681C6.92598 19.019 6.62567 18.4293 6.07659 18.2509L1.36775 16.7206C0.820649 16.5451 0.227956 16.8444 0.0505447 17.3925C-0.126867 17.9416 0.173444 18.5304 0.722528 18.7097Z" fill="black"/>
<path d="M14.8348 10.7157C15.0389 10.9997 15.3571 11.1507 15.6801 11.1507C15.8942 11.1507 16.1092 11.0847 16.2946 10.9497C16.7623 10.6067 16.8644 9.94773 16.5255 9.47573L13.6159 5.43373C13.2769 4.95973 12.6219 4.86273 12.1561 5.19973C11.6883 5.54273 11.5863 6.20173 11.9252 6.67373L14.8348 10.7157V10.7157Z" fill="black"/>
<path d="M64.2226 36.668L59.5137 35.123C58.9706 34.945 58.374 35.247 58.1965 35.801C58.0191 36.355 58.3194 36.949 58.8685 37.13L63.5774 38.675C63.6834 38.71 63.7934 38.727 63.9005 38.727C64.3415 38.727 64.7518 38.445 64.8946 37.998C65.072 37.443 64.7717 36.849 64.2226 36.668Z" fill="black"/>
<path d="M63.3377 16.7184L58.8366 18.1802C58.3118 18.3507 58.0247 18.9144 58.1943 19.4393C58.3307 19.8618 58.7229 20.1299 59.1445 20.1299C59.2459 20.1299 59.3511 20.1148 59.4534 20.0807L63.9545 18.6188C64.4793 18.4483 64.7664 17.8846 64.5968 17.3597C64.4272 16.8368 63.8626 16.5507 63.3377 16.7184Z" fill="black"/>
<path d="M49.2815 11.0967C49.6046 11.0967 49.9227 10.9481 50.1269 10.6657L53.0365 6.65997C53.3754 6.19222 53.2733 5.53914 52.8056 5.19922C52.3378 4.86228 51.6867 4.96138 51.3458 5.43112L48.4362 9.43679C48.0973 9.90455 48.1993 10.5576 48.6671 10.8975C48.8524 11.0323 49.0675 11.0967 49.2815 11.0967Z" fill="black"/>
<path d="M7.822 31.377C7.841 31.409 7.846 31.446 7.868 31.477L31.651 64.042C31.663 64.059 31.684 64.065 31.697 64.081C31.717 64.106 31.739 64.129 31.762 64.152C31.768 64.159 31.773 64.166 31.78 64.172C31.806 64.197 31.825 64.229 31.853 64.251C31.865 64.261 31.882 64.265 31.895 64.274C31.919 64.291 31.946 64.301 31.971 64.315C32.007 64.336 32.039 64.356 32.077 64.373C32.086 64.377 32.093 64.383 32.102 64.387C32.106 64.389 32.109 64.391 32.112 64.393C32.141 64.404 32.168 64.415 32.198 64.424C32.21 64.428 32.219 64.437 32.231 64.44C32.322 64.465 32.412 64.475 32.501 64.475C32.501 64.475 32.51 64.473 32.514 64.473C32.514 64.473 32.519 64.475 32.522 64.475C32.532 64.475 32.541 64.469 32.551 64.469C32.615 64.466 32.679 64.462 32.744 64.446C32.767 64.441 32.784 64.424 32.806 64.418C32.908 64.389 32.999 64.346 33.086 64.289C33.101 64.279 33.119 64.273 33.133 64.262C33.139 64.258 33.142 64.252 33.147 64.248C33.225 64.189 33.291 64.123 33.35 64.044C33.35 64.044 33.351 64.043 33.352 64.043L56.684 32.158C56.707 32.126 56.713 32.088 56.732 32.054C56.769 31.991 56.8 31.928 56.823 31.857C56.845 31.788 56.857 31.721 56.865 31.65C56.87 31.61 56.888 31.576 56.888 31.535V25.278C56.888 25.234 56.868 25.197 56.863 25.154C56.855 25.082 56.844 25.013 56.821 24.943C56.797 24.874 56.764 24.813 56.728 24.751C56.706 24.714 56.699 24.672 56.672 24.637L49.906 15.8C49.894 15.785 49.876 15.779 49.864 15.765C49.794 15.682 49.71 15.618 49.617 15.56C49.583 15.539 49.555 15.511 49.519 15.494C49.407 15.441 49.283 15.413 49.153 15.402C49.131 15.4 49.112 15.387 49.09 15.386C49.088 15.386 49.085 15.388 49.085 15.388C49.078 15.388 49.074 15.385 49.069 15.385H15.994C15.984 15.385 15.976 15.39 15.966 15.391C15.959 15.391 15.952 15.387 15.945 15.387C15.905 15.389 15.87 15.412 15.831 15.418C15.73 15.434 15.631 15.453 15.541 15.497C15.496 15.519 15.46 15.552 15.418 15.58C15.339 15.633 15.266 15.688 15.204 15.76C15.19 15.776 15.169 15.783 15.156 15.8L7.88 25.315C7.853 25.35 7.846 25.392 7.825 25.429C7.788 25.491 7.755 25.552 7.731 25.622C7.708 25.692 7.697 25.76 7.689 25.831C7.684 25.874 7.664 25.911 7.664 25.956V30.855C7.664 30.897 7.683 30.932 7.688 30.973C7.696 31.042 7.707 31.108 7.729 31.175C7.752 31.248 7.784 31.312 7.822 31.377V31.377ZM9.774 29.194H23.749V30.881C23.749 30.962 23.759 31.045 23.778 31.124L30.274 58.58L9.774 30.512V29.194V29.194ZM25.858 29.194H40.045V30.744L32.559 59.078L25.859 30.757V29.194H25.858ZM40.044 27.084H25.857V26.228L32.567 18.056L40.044 26.361V27.084V27.084ZM42.118 31.151C42.141 31.062 42.153 30.972 42.153 30.881V29.194H54.779V31.19L34.949 58.288L42.118 31.151V31.151ZM54.779 27.084H42.153V26.34L49.03 18.127L54.778 25.635V27.084H54.779ZM41.071 24.347L34.901 17.494H46.81L41.071 24.347ZM24.709 24.301L18.407 17.494H30.299L24.709 24.301ZM16.07 18.076L23.748 26.371V27.085H9.774V26.315L16.07 18.076Z" fill="black"/>
</g>
<defs>
<clipPath id="clip0">
<rect width="65.007" height="65.007" fill="white"/>
</clipPath>
</defs>
</svg>
